Coordinates
version=1
nRows=17
nColumns=33
inDegrees=yes

Units are S.I. units (second, meters, Newtons, ...)
Angles are in degrees.

endheader
time	ground_thorax_rot_x	ground_thorax_rot_y	ground_thorax_rot_z	ground_thorax_tx	ground_thorax_ty	ground_thorax_tz	clav_prot_r	clav_elev_r	scapula_abduction_r	scapula_elevation_r	scapula_upward_rot_r	scapula_winging_r	shoulder_elv_r	plane_of_elev_r	axial_rot_r	elbow_flexion_r	pro_sup_r	wrist_flex_r	wrist_dev_r	clav_prot_l	clav_elev_l	scapula_abduction_l	scapula_elevation_l	scapula_upward_rot_l	scapula_winging_l	shoulder_elv_l	plane_of_elev_l	axial_rot_l	elbow_flexion_l	pro_sup_l	wrist_flex_l	wrist_dev_l
      4.32000000	     -0.08692313	      3.60438487	     12.54715098	     -0.11171137	      1.02767598	      0.02439969	      7.61186763	      5.51883602	     29.49870144	      0.78923033	     27.58974891	    -13.85302508	     22.99616283	    -58.37294209	     57.61614903	     53.41707619	    -35.60519979	     34.70523492	    -24.99999983	     20.18113303	    -11.22147519	    -29.66811019	     -9.75051388	    -32.86435749	      7.24577289	     62.80368404	    -15.47586553	     -0.15527496	     45.63856640	      4.41769992	     27.86319452	     -5.26911318
      4.33000000	     -3.23710695	      2.29210621	     12.31585514	     -0.11290409	      1.02686263	      0.01054826	     13.26982884	    -13.72562128	     28.63385337	    -10.25571553	     10.74834200	     -6.54813073	    -19.97094133	    -66.53664469	    115.79028457	    -67.56412206	   -165.76321898	      4.66781645	      6.93355129	     19.87483197	     -6.38243697	    -29.27005706	    -12.63733797	    -29.88524869	      7.94930608	     59.48933856	    -12.55043527	      0.41030212	     43.62791666	      5.66154786	     27.14818663	     -2.97803141
      4.34000000	     -3.40837528	      2.32838355	     12.13606142	     -0.11252074	      1.02754232	      0.01023126	     13.36141661	    -14.35443220	     29.12207504	    -11.02189919	     11.35971011	     -6.35333612	    -19.01029441	    -65.96946997	    116.03828284	    -65.72868977	   -165.58865358	      3.97164955	      6.73553460	     20.30422588	     -7.22506022	    -29.94198954	    -11.65987444	    -29.45924950	      8.29926404	     59.62109871	    -12.00736770	      0.44283029	     41.29635340	      5.77890052	     27.12925794	     -2.75654445
      4.35000000	     -3.59386621	      2.60997132	     12.33751621	     -0.11257535	      1.02685798	      0.00988172	     13.15690461	    -14.09173526	     29.01497945	    -10.91711846	     11.72013990	     -6.43302756	    -16.96184990	    -64.87145520	    118.06945960	    -63.65631706	   -165.14889456	      2.78421922	      6.78793784	     21.34702511	     -7.30799076	    -31.68844727	    -11.31787568	    -29.04796812	      9.33357882	     58.61485582	    -10.67857942	      0.74774460	     38.49984879	      5.76855059	     27.08332624	     -3.29786956
      4.36000000	     -3.79589739	      2.51766888	     12.32966080	     -0.11209160	      1.02748330	      0.00936654	     13.29108790	    -14.72947960	     29.56630970	    -11.68047872	     12.31466425	     -6.24734102	    -16.26224909	    -64.36670291	    118.09083137	    -61.55947925	   -165.07500529	      2.28689291	      6.83558481	     21.59670028	     -7.88798289	    -32.06104475	    -10.63384791	    -28.70898620	      9.51412844	     58.61737464	    -10.04424570	      0.69773607	     36.19002355	      6.09205811	     26.96674842	     -2.89421813
      4.37000000	     -4.02575363	      2.47586636	     11.92295426	     -0.11148409	      1.02774447	      0.00902203	     13.30632506	    -15.02787617	     30.15744428	    -12.26035401	     13.26518288	     -6.24273291	    -15.40239451	    -63.58386587	    118.48068221	    -59.56584264	   -164.95963299	      1.83703677	      7.04873122	     21.93344267	     -8.13766355	    -32.59564033	    -10.10876949	    -28.10477388	      9.85492412	     58.44518820	     -8.92147237	      1.03184788	     33.53799898	      6.43633748	     26.67144124	     -2.65060607
      4.38000000	     -4.20495178	      2.42055889	     11.81843124	     -0.11105731	      1.02780802	      0.00865159	     13.36426708	    -15.15328545	     30.74584161	    -12.63409610	     14.07802206	     -6.34888110	    -14.58124081	    -62.81350654	    118.93042213	    -57.43216609	   -164.76204558	      1.38230352	      7.28555417	     22.30940490	     -8.35657063	    -33.20490531	     -9.67177399	    -27.63389142	     10.22743337	     58.09160932	     -7.89115022	      1.12996652	     30.94338554	      6.85453001	     26.30286370	     -2.55323080
      4.39000000	     -4.27238045	      2.34364002	     11.99884555	     -0.11083999	      1.02714817	      0.00824667	     13.36260405	    -14.68107697	     31.30894264	    -12.49521561	     14.96144686	     -6.81577003	    -13.62621611	    -61.94994048	    120.08468322	    -55.09539583	   -164.15732306	      1.02276766	      7.75539643	     22.91150042	     -8.26281952	    -34.21988768	     -9.56473973	    -27.32472487	     10.86968439	     57.11212406	     -6.56136703	      1.64459874	     28.30245855	      7.54523856	     25.42618724	     -3.07970268
      4.40000000	     -4.41678372	      2.29364872	     11.85718638	     -0.11060182	      1.02757361	      0.00799276	     13.58681934	    -14.99063917	     31.97338593	    -12.92098018	     15.46752625	     -6.86658739	    -12.81954813	    -61.23364668	    120.14213708	    -53.23818815	   -163.83367180	      0.63114191	      7.78086135	     23.29655115	     -8.78271694	    -34.82065644	     -8.92122254	    -26.96156262	     11.17809926	     57.14499050	     -5.92886967	      1.38820580	     26.06571048	      8.06046003	     25.12631021	     -2.93334166
      4.41000000	     -4.36982118	      2.26332854	     12.07627377	     -0.11075765	      1.02695972	      0.00776853	     13.76026346	    -14.38961100	     32.67612260	    -12.58094331	     16.10923431	     -7.50046027	    -11.84185460	    -60.33784236	    121.08257947	    -51.10861217	   -162.33796085	      0.50889859	      8.03291700	     24.05905114	     -8.94211211	    -36.07881484	     -8.67656502	    -26.84597373	     11.91772942	     56.35608129	     -4.76935290	      1.70293997	     23.62537150	      9.32431662	     23.93995513	     -3.80034454
      4.42000000	     -4.51089448	      2.11654699	     12.08151101	     -0.11036869	      1.02759210	      0.00740063	     13.89459876	    -14.82196083	     33.21614514	    -13.12345930	     16.64713027	     -7.41200217	    -11.33105295	    -59.94078930	    121.06945403	    -49.30561433	   -162.09694436	      0.08457333	      8.03295373	     24.30229407	     -9.42814892	    -36.43679272	     -8.12389010	    -26.58198398	     12.06738202	     56.35859581	     -4.35527651	      1.41487677	     21.70755515	      9.68909592	     23.84643811	     -3.48916668
      4.43000000	     -4.62344769	      1.99842594	     11.94843814	     -0.10996391	      1.02811199	      0.00709386	     13.98498702	    -15.07005409	     33.77821908	    -13.54203959	     17.31649328	     -7.42901391	    -10.80294859	    -59.47075184	    121.17118534	    -47.57632315	   -161.75645470	     -0.30401204	      8.03030650	     24.57236982	     -9.80910045	    -36.84833032	     -7.63454352	    -26.26350845	     12.26745849	     56.31457385	     -3.79337530	      1.18459789	     19.77510171	     10.10160742	     23.58667502	     -3.24623257
      4.44000000	     -4.57436384	      1.90384405	     11.81458945	     -0.10952060	      1.02750210	      0.00704605	     13.89275509	    -14.17166995	     34.45490943	    -13.11493530	     18.53448967	     -8.17364442	    -10.34872266	    -58.50739764	    121.97308273	    -45.53650207	   -159.96896805	     -0.43866991	      7.97710834	     25.08701449	     -9.72475035	    -37.71457456	     -7.56109362	    -26.02800974	     12.83456864	     55.63456967	     -2.59188986	      1.78761793	     17.74416201	     11.12256807	     22.01081946	     -3.81193834
      4.45000000	     -4.63215067	      1.80273408	     11.80754966	     -0.10933236	      1.02808718	      0.00678822	     14.13838222	    -14.48893364	     35.07206897	    -13.49176012	     18.90316567	     -8.20680376	     -9.84693659	    -58.16497264	    121.83846898	    -44.08706625	   -159.59004278	     -0.76418968	      7.89436325	     25.36040231	    -10.20087652	    -38.11560123	     -7.06979641	    -25.87270405	     12.99481278	     55.66889716	     -2.30384757	      1.26985235	     16.27896416	     11.50198228	     21.85877458	     -3.60551967
      4.46000000	     -4.70064460	      1.68977215	     11.71721558	     -0.10903850	      1.02857810	      0.00655510	     14.27690409	    -14.63168200	     35.65462109	    -13.77405795	     19.46621587	     -8.30973359	     -9.39727796	    -57.72469264	    121.84172902	    -42.56416054	   -159.08900775	     -1.10549125	      7.76655071	     25.61529445	    -10.52557572	    -38.49920876	     -6.71560757	    -25.73287928	     13.16865919	     55.64928327	     -1.94810126	      0.99072666	     14.97143818	     11.85305270	     21.51824755	     -3.45334993
      4.47000000	     -4.50223471	      1.54270399	     11.74702842	     -0.10893600	      1.02782107	      0.00673164	     14.42444470	    -13.42316429	     36.67119555	    -13.02712287	     20.58089120	     -9.41542521	     -9.29960638	    -56.78032616	    122.23518859	    -40.71218370	   -156.30947003	     -1.14436260	      6.98910437	     26.10952254	    -10.57805107	    -39.30165529	     -6.70566962	    -25.87834197	     13.64634251	     55.12031271	     -1.11312247	      1.53717407	     13.79396638	     12.60047554	     19.46499844	     -3.87541372
      4.48000000	     -4.58490028	      1.45259279	     11.75877058	     -0.10875660	      1.02836118	      0.00655486	     14.61359369	    -13.69866908	     37.15310592	    -13.34073242	     20.87268480	     -9.42601173	     -9.01834831	    -56.55247043	    122.12735168	    -39.67931251	   -156.03163549	     -1.38619066	      6.94499130	     26.26910242	    -10.88135797	    -39.52619300	     -6.40596860	    -25.80065086	     13.72053908	     55.16457053	     -1.01613013	      1.18096955	     12.87233156	     12.76918401	     19.41502878	     -3.68439527
